<svg width="88" height="76" viewBox="0 0 88 76" fill="none" xmlns="http://www.w3.org/2000/svg">
    <path
        d="M75.0489 28.9271C75.3483 28.0057 76.6517 28.0057 76.9511 28.9271L78.4697 33.6008C78.6035 34.0128 78.9875 34.2918 79.4207 34.2918H84.335C85.3037 34.2918 85.7065 35.5314 84.9228 36.1008L80.947 38.9894C80.5966 39.244 80.4499 39.6954 80.5838 40.1074L82.1024 44.7812C82.4017 45.7025 81.3472 46.4686 80.5635 45.8992L76.5878 43.0106C76.2373 42.756 75.7627 42.756 75.4122 43.0106L71.4365 45.8992C70.6528 46.4686 69.5983 45.7025 69.8976 44.7812L71.4162 40.1074C71.5501 39.6954 71.4034 39.244 71.053 38.9894L67.0772 36.1008C66.2935 35.5314 66.6963 34.2918 67.665 34.2918H72.5793C73.0125 34.2918 73.3965 34.0128 73.5303 33.6008L75.0489 28.9271Z"
        fill="url(#paint0_linear_1_589)" />
    <path
        d="M75.2629 28.9966C75.4949 28.2826 76.5051 28.2826 76.7371 28.9966L78.2557 33.6703C78.4197 34.1751 78.89 34.5168 79.4207 34.5168H84.335C85.0858 34.5168 85.3979 35.4775 84.7905 35.9188L80.8148 38.8073C80.3854 39.1193 80.2058 39.6722 80.3698 40.1769L81.8884 44.8507C82.1204 45.5647 81.3032 46.1584 80.6958 45.7172L76.72 42.8286C76.2907 42.5167 75.7093 42.5167 75.28 42.8286L71.3042 45.7172C70.6968 46.1584 69.8796 45.5647 70.1116 44.8507L71.6302 40.1769C71.7942 39.6722 71.6146 39.1193 71.1852 38.8073L67.2095 35.9188C66.6021 35.4775 66.9142 34.5168 67.665 34.5168H72.5793C73.11 34.5168 73.5803 34.1751 73.7443 33.6703L75.2629 28.9966Z"
        stroke="#FFCBAD" stroke-opacity="0.5" stroke-width="0.45" />
    <path
        d="M66.0489 4.92705C66.3483 4.00574 67.6517 4.00574 67.9511 4.92705L69.4697 9.60081C69.6035 10.0128 69.9875 10.2918 70.4207 10.2918H75.335C76.3037 10.2918 76.7065 11.5314 75.9228 12.1008L71.947 14.9894C71.5966 15.244 71.4499 15.6954 71.5838 16.1074L73.1024 20.7812C73.4017 21.7025 72.3472 22.4686 71.5635 21.8992L67.5878 19.0106C67.2373 18.756 66.7627 18.756 66.4122 19.0106L62.4365 21.8992C61.6528 22.4686 60.5983 21.7025 60.8976 20.7812L62.4162 16.1074C62.5501 15.6954 62.4034 15.244 62.053 14.9894L58.0772 12.1008C57.2935 11.5314 57.6963 10.2918 58.665 10.2918H63.5793C64.0125 10.2918 64.3965 10.0128 64.5303 9.60081L66.0489 4.92705Z"
        fill="url(#paint1_linear_1_589)" />
    <path
        d="M66.2629 4.99658C66.4949 4.28256 67.5051 4.28256 67.7371 4.99658L69.2557 9.67034C69.4197 10.1751 69.89 10.5168 70.4207 10.5168H75.335C76.0858 10.5168 76.3979 11.4775 75.7905 11.9188L71.8148 14.8073C71.3854 15.1193 71.2058 15.6722 71.3698 16.1769L72.8884 20.8507C73.1204 21.5647 72.3032 22.1584 71.6958 21.7172L67.72 18.8286C67.2907 18.5167 66.7093 18.5167 66.28 18.8286L62.3042 21.7172C61.6968 22.1584 60.8796 21.5647 61.1116 20.8507L62.6302 16.1769C62.7942 15.6722 62.6146 15.1193 62.1852 14.8073L58.2095 11.9188C57.6021 11.4775 57.9142 10.5168 58.665 10.5168H63.5793C64.11 10.5168 64.5803 10.1751 64.7443 9.67034L66.2629 4.99658Z"
        stroke="#FFCBAD" stroke-opacity="0.5" stroke-width="0.45" />
    <path
        d="M66.0489 52.9271C66.3483 52.0057 67.6517 52.0057 67.9511 52.9271L69.4697 57.6008C69.6035 58.0128 69.9875 58.2918 70.4207 58.2918H75.335C76.3037 58.2918 76.7065 59.5314 75.9228 60.1008L71.947 62.9894C71.5966 63.244 71.4499 63.6954 71.5838 64.1074L73.1024 68.7812C73.4017 69.7025 72.3472 70.4686 71.5635 69.8992L67.5878 67.0106C67.2373 66.756 66.7627 66.756 66.4122 67.0106L62.4365 69.8992C61.6528 70.4686 60.5983 69.7025 60.8976 68.7812L62.4162 64.1074C62.5501 63.6954 62.4034 63.244 62.053 62.9894L58.0772 60.1008C57.2935 59.5314 57.6963 58.2918 58.665 58.2918H63.5793C64.0125 58.2918 64.3965 58.0128 64.5303 57.6008L66.0489 52.9271Z"
        fill="url(#paint2_linear_1_589)" />
    <path
        d="M66.2629 52.9966C66.4949 52.2826 67.5051 52.2826 67.7371 52.9966L69.2557 57.6703C69.4197 58.1751 69.89 58.5168 70.4207 58.5168H75.335C76.0858 58.5168 76.3979 59.4775 75.7905 59.9188L71.8148 62.8073C71.3854 63.1193 71.2058 63.6722 71.3698 64.1769L72.8884 68.8507C73.1204 69.5647 72.3032 70.1584 71.6958 69.7172L67.72 66.8286C67.2907 66.5167 66.7093 66.5167 66.28 66.8286L62.3042 69.7172C61.6968 70.1584 60.8796 69.5647 61.1116 68.8507L62.6302 64.1769C62.7942 63.6722 62.6146 63.1193 62.1852 62.8073L58.2095 59.9188C57.6021 59.4775 57.9142 58.5168 58.665 58.5168H63.5793C64.11 58.5168 64.5803 58.1751 64.7443 57.6703L66.2629 52.9966Z"
        stroke="#FFCBAD" stroke-opacity="0.5" stroke-width="0.45" />
    <!-- <path d="M24.394 47L32.116 29.892L32.792 31.062H21.976L23.276 29.788V34.312H20.78V28.8H34.508V30.568L27.15 47H24.394ZM37.1574 47.156C36.672 47.156 36.256 46.9913 35.9094 46.662C35.5627 46.3153 35.3894 45.882 35.3894 45.362C35.3894 44.842 35.5627 44.4173 35.9094 44.088C36.256 43.7587 36.672 43.594 37.1574 43.594C37.6254 43.594 38.024 43.7587 38.3534 44.088C38.7 44.4173 38.8734 44.842 38.8734 45.362C38.8734 45.882 38.7 46.3153 38.3534 46.662C38.024 46.9913 37.6254 47.156 37.1574 47.156ZM44.1479 47L51.8699 29.892L52.5459 31.062H41.7299L43.0299 29.788V34.312H40.5339V28.8H54.2619V30.568L46.9039 47H44.1479Z" fill="white"/> -->
    <rect x="1" y="1" width="74" height="74" rx="37" stroke="url(#paint3_radial_1_589)" stroke-width="2" />
    <defs>
        <linearGradient id="paint0_linear_1_589" x1="76" y1="26" x2="76" y2="50" gradientUnits="userSpaceOnUse">
            <stop stop-color="#FAFF00" />
            <stop offset="1" stop-color="#FF7A00" />
        </linearGradient>
        <linearGradient id="paint1_linear_1_589" x1="67" y1="2" x2="67" y2="26" gradientUnits="userSpaceOnUse">
            <stop stop-color="#FAFF00" />
            <stop offset="1" stop-color="#FF7A00" />
        </linearGradient>
        <linearGradient id="paint2_linear_1_589" x1="67" y1="50" x2="67" y2="74" gradientUnits="userSpaceOnUse">
            <stop stop-color="#FAFF00" />
            <stop offset="1" stop-color="#FF7A00" />
        </linearGradient>
        <radialGradient id="paint3_radial_1_589" cx="0" cy="0" r="1" gradientUnits="userSpaceOnUse"
            gradientTransform="translate(2.80813e-06 38) scale(76 49.7199)">
            <stop stop-color="#FF7A00" />
            <stop offset="1" stop-color="#FF7A00" stop-opacity="0" />
        </radialGradient>
    </defs>
</svg>